{
	"asset":{
		"generator":"Khronos glTF Blender I/O v4.0.44",
		"version":"2.0"
	},
	"scene":0,
	"scenes":[
		{
			"name":"Scene",
			"nodes":[
				0,
				1,
				2,
				3,
				11
			]
		}
	],
	"nodes":[
		{
			"mesh":0,
			"name":"SM_Floor",
			"scale":[
				1,
				0.1432167887687683,
				1
			]
		},
		{
			"mesh":1,
			"name":"RedCube",
			"scale":[
				0.09358911216259003,
				0.09358911216259003,
				0.09358911216259003
			],
			"translation":[
				0,
				1.4037487506866455,
				0.41459205746650696
			]
		},
		{
			"mesh":2,
			"name":"SM_BlueSphere",
			"scale":[
				0.15273010730743408,
				0.15273010730743408,
				0.15273010730743408
			],
			"translation":[
				0,
				0.43107545375823975,
				-0.6095823645591736
			]
		},
		{
			"mesh":3,
			"name":"SM_YellowCone",
			"scale":[
				0.20249463617801666,
				0.20249463617801666,
				0.20249463617801666
			],
			"translation":[
				0,
				1.3008222579956055,
				0.7292200922966003
			]
		},
		{
			"name":"Bone",
			"rotation":[
				1.1102230246251565e-16,
				1.942890293094024e-16,
				0,
				1
			],
			"scale":[
				0.9999999403953552,
				0.9999999403953552,
				1
			],
			"translation":[
				7.450580596923828e-08,
				-2.9802322387695312e-08,
				-7.549516567451064e-15
			]
		},
		{
			"name":"Bone.005",
			"rotation":[
				0.14582817256450653,
				3.677691395864713e-08,
				1.5161559474563546e-07,
				0.9893099069595337
			],
			"scale":[
				1,
				1,
				1.0000001192092896
			],
			"translation":[
				-2.5579538487363607e-13,
				0.29063305258750916,
				4.172324565843155e-07
			]
		},
		{
			"children":[
				5
			],
			"name":"Bone.004",
			"rotation":[
				0.2510256767272949,
				3.917853064194787e-08,
				2.4149619548552437e-07,
				0.9679804444313049
			],
			"scale":[
				1,
				0.9999999403953552,
				1
			],
			"translation":[
				-1.4210854715202004e-13,
				0.3573138117790222,
				1.1920922560193503e-07
			]
		},
		{
			"children":[
				6
			],
			"name":"Bone.003",
			"rotation":[
				0.14485281705856323,
				3.462131470399754e-09,
				1.3298422629759443e-07,
				0.9894532561302185
			],
			"scale":[
				1,
				0.9999999403953552,
				0.9999999403953552
			],
			"translation":[
				5.684341886080802e-14,
				0.37289419770240784,
				-1.7881400538044545e-07
			]
		},
		{
			"children":[
				7
			],
			"name":"Bone.002",
			"rotation":[
				0.29399415850639343,
				-3.206061194305221e-08,
				2.7644102829071926e-07,
				0.9558072686195374
			],
			"scale":[
				1,
				1.0000001192092896,
				1
			],
			"translation":[
				-9.237055564881302e-14,
				0.44559308886528015,
				2.9802231793496503e-08
			]
		},
		{
			"children":[
				8
			],
			"name":"Bone.001",
			"rotation":[
				-0.7069260478019714,
				-0.015970855951309204,
				-0.7069267630577087,
				0.015970807522535324
			],
			"scale":[
				0.9999998807907104,
				0.9999997019767761,
				0.9999997615814209
			],
			"translation":[
				7.450580596923828e-08,
				-2.9802322387695312e-08,
				-7.549516567451064e-15
			]
		},
		{
			"mesh":4,
			"name":"SM_Theforbidden",
			"skin":0
		},
		{
			"children":[
				10,
				4,
				9
			],
			"name":"Armature",
			"rotation":[
				0,
				0,
				-0.18243588507175446,
				0.9832178354263306
			],
			"scale":[
				0.41582190990448,
				0.41582190990448,
				0.41582190990448
			],
			"translation":[
				0.5475881099700928,
				1.2604817152023315,
				0
			]
		}
	],
	"animations":[
		{
			"channels":[
				{
					"sampler":0,
					"target":{
						"node":1,
						"path":"translation"
					}
				},
				{
					"sampler":1,
					"target":{
						"node":1,
						"path":"rotation"
					}
				},
				{
					"sampler":2,
					"target":{
						"node":1,
						"path":"scale"
					}
				}
			],
			"name":"RedCubeAction",
			"samplers":[
				{
					"input":34,
					"interpolation":"LINEAR",
					"output":35
				},
				{
					"input":36,
					"interpolation":"STEP",
					"output":37
				},
				{
					"input":36,
					"interpolation":"STEP",
					"output":38
				}
			]
		},
		{
			"channels":[
				{
					"sampler":0,
					"target":{
						"node":2,
						"path":"translation"
					}
				},
				{
					"sampler":1,
					"target":{
						"node":2,
						"path":"rotation"
					}
				},
				{
					"sampler":2,
					"target":{
						"node":2,
						"path":"scale"
					}
				}
			],
			"name":"SM_BlueSphereAction",
			"samplers":[
				{
					"input":34,
					"interpolation":"LINEAR",
					"output":39
				},
				{
					"input":36,
					"interpolation":"STEP",
					"output":40
				},
				{
					"input":36,
					"interpolation":"STEP",
					"output":41
				}
			]
		},
		{
			"channels":[
				{
					"sampler":0,
					"target":{
						"node":3,
						"path":"translation"
					}
				},
				{
					"sampler":1,
					"target":{
						"node":3,
						"path":"rotation"
					}
				},
				{
					"sampler":2,
					"target":{
						"node":3,
						"path":"scale"
					}
				}
			],
			"name":"SM_YellowConeAction",
			"samplers":[
				{
					"input":34,
					"interpolation":"LINEAR",
					"output":42
				},
				{
					"input":36,
					"interpolation":"STEP",
					"output":43
				},
				{
					"input":36,
					"interpolation":"STEP",
					"output":44
				}
			]
		},
		{
			"channels":[
				{
					"sampler":0,
					"target":{
						"node":4,
						"path":"translation"
					}
				},
				{
					"sampler":1,
					"target":{
						"node":4,
						"path":"rotation"
					}
				},
				{
					"sampler":2,
					"target":{
						"node":4,
						"path":"scale"
					}
				},
				{
					"sampler":3,
					"target":{
						"node":9,
						"path":"translation"
					}
				},
				{
					"sampler":4,
					"target":{
						"node":9,
						"path":"rotation"
					}
				},
				{
					"sampler":5,
					"target":{
						"node":9,
						"path":"scale"
					}
				},
				{
					"sampler":6,
					"target":{
						"node":8,
						"path":"translation"
					}
				},
				{
					"sampler":7,
					"target":{
						"node":8,
						"path":"rotation"
					}
				},
				{
					"sampler":8,
					"target":{
						"node":8,
						"path":"scale"
					}
				},
				{
					"sampler":9,
					"target":{
						"node":7,
						"path":"translation"
					}
				},
				{
					"sampler":10,
					"target":{
						"node":7,
						"path":"rotation"
					}
				},
				{
					"sampler":11,
					"target":{
						"node":7,
						"path":"scale"
					}
				},
				{
					"sampler":12,
					"target":{
						"node":6,
						"path":"translation"
					}
				},
				{
					"sampler":13,
					"target":{
						"node":6,
						"path":"rotation"
					}
				},
				{
					"sampler":14,
					"target":{
						"node":6,
						"path":"scale"
					}
				},
				{
					"sampler":15,
					"target":{
						"node":5,
						"path":"translation"
					}
				},
				{
					"sampler":16,
					"target":{
						"node":5,
						"path":"rotation"
					}
				},
				{
					"sampler":17,
					"target":{
						"node":5,
						"path":"scale"
					}
				}
			],
			"name":"ArmatureAction.001",
			"samplers":[
				{
					"input":36,
					"interpolation":"STEP",
					"output":45
				},
				{
					"input":34,
					"interpolation":"LINEAR",
					"output":46
				},
				{
					"input":36,
					"interpolation":"STEP",
					"output":47
				},
				{
					"input":36,
					"interpolation":"STEP",
					"output":48
				},
				{
					"input":36,
					"interpolation":"STEP",
					"output":49
				},
				{
					"input":36,
					"interpolation":"STEP",
					"output":50
				},
				{
					"input":36,
					"interpolation":"STEP",
					"output":51
				},
				{
					"input":36,
					"interpolation":"STEP",
					"output":52
				},
				{
					"input":36,
					"interpolation":"STEP",
					"output":53
				},
				{
					"input":36,
					"interpolation":"STEP",
					"output":54
				},
				{
					"input":34,
					"interpolation":"LINEAR",
					"output":55
				},
				{
					"input":36,
					"interpolation":"STEP",
					"output":56
				},
				{
					"input":36,
					"interpolation":"STEP",
					"output":57
				},
				{
					"input":36,
					"interpolation":"STEP",
					"output":58
				},
				{
					"input":36,
					"interpolation":"STEP",
					"output":59
				},
				{
					"input":36,
					"interpolation":"STEP",
					"output":60
				},
				{
					"input":36,
					"interpolation":"STEP",
					"output":61
				},
				{
					"input":36,
					"interpolation":"STEP",
					"output":62
				}
			]
		},
		{
			"channels":[
				{
					"sampler":0,
					"target":{
						"node":10,
						"path":"translation"
					}
				},
				{
					"sampler":1,
					"target":{
						"node":10,
						"path":"rotation"
					}
				},
				{
					"sampler":2,
					"target":{
						"node":10,
						"path":"scale"
					}
				}
			],
			"name":"SM_TheforbiddenAction",
			"samplers":[
				{
					"input":63,
					"interpolation":"LINEAR",
					"output":64
				},
				{
					"input":63,
					"interpolation":"LINEAR",
					"output":65
				},
				{
					"input":63,
					"interpolation":"LINEAR",
					"output":66
				}
			]
		}
	],
	"materials":[
		{
			"doubleSided":true,
			"name":"Red",
			"pbrMetallicRoughness":{
				"baseColorFactor":[
					0.8000626564025879,
					0.0002181633171858266,
					0,
					1
				],
				"metallicFactor":0,
				"roughnessFactor":0.5
			}
		},
		{
			"doubleSided":true,
			"name":"Blue",
			"pbrMetallicRoughness":{
				"baseColorFactor":[
					0,
					0.014975124970078468,
					0.800481915473938,
					1
				],
				"metallicFactor":0,
				"roughnessFactor":0.5
			}
		},
		{
			"doubleSided":true,
			"name":"Yellow",
			"pbrMetallicRoughness":{
				"baseColorFactor":[
					0.8002356290817261,
					0.6342898011207581,
					0,
					1
				],
				"metallicFactor":0,
				"roughnessFactor":0.5
			}
		},
		{
			"doubleSided":true,
			"name":"Green",
			"pbrMetallicRoughness":{
				"baseColorFactor":[
					0.07143647968769073,
					0.8002356290817261,
					0.004803607240319252,
					1
				],
				"metallicFactor":0,
				"roughnessFactor":0.5
			}
		},
		{
			"doubleSided":true,
			"name":"Black",
			"pbrMetallicRoughness":{
				"baseColorFactor":[
					0,
					0,
					0,
					1
				],
				"metallicFactor":0,
				"roughnessFactor":0.5
			}
		},
		{
			"doubleSided":true,
			"name":"White",
			"pbrMetallicRoughness":{
				"baseColorFactor":[
					0.800000011920929,
					0.800000011920929,
					0.800000011920929,
					1
				],
				"metallicFactor":0,
				"roughnessFactor":0.5
			}
		}
	],
	"meshes":[
		{
			"name":"Cube.001",
			"primitives":[
				{
					"attributes":{
						"POSITION":0,
						"NORMAL":1,
						"TEXCOORD_0":2
					},
					"indices":3
				}
			]
		},
		{
			"name":"Cube.002",
			"primitives":[
				{
					"attributes":{
						"POSITION":4,
						"NORMAL":5,
						"TEXCOORD_0":6
					},
					"indices":3,
					"material":0
				}
			]
		},
		{
			"name":"Sphere",
			"primitives":[
				{
					"attributes":{
						"POSITION":7,
						"NORMAL":8,
						"TEXCOORD_0":9
					},
					"indices":10,
					"material":1
				}
			]
		},
		{
			"name":"Cone",
			"primitives":[
				{
					"attributes":{
						"POSITION":11,
						"NORMAL":12,
						"TEXCOORD_0":13
					},
					"indices":14,
					"material":2
				}
			]
		},
		{
			"name":"Cube.003",
			"primitives":[
				{
					"attributes":{
						"POSITION":15,
						"NORMAL":16,
						"TEXCOORD_0":17,
						"JOINTS_0":18,
						"WEIGHTS_0":19
					},
					"indices":20,
					"material":3
				},
				{
					"attributes":{
						"POSITION":21,
						"NORMAL":22,
						"TEXCOORD_0":23,
						"JOINTS_0":24,
						"WEIGHTS_0":25
					},
					"indices":26,
					"material":4
				},
				{
					"attributes":{
						"POSITION":27,
						"NORMAL":28,
						"TEXCOORD_0":29,
						"JOINTS_0":30,
						"WEIGHTS_0":31
					},
					"indices":32,
					"material":5
				}
			]
		}
	],
	"skins":[
		{
			"inverseBindMatrices":33,
			"joints":[
				4,
				9,
				8,
				7,
				6,
				5
			],
			"name":"Armature"
		}
	],
	"accessors":[
		{
			"bufferView":0,
			"componentType":5126,
			"count":24,
			"max":[
				1,
				1.9775390625,
				1
			],
			"min":[
				-1,
				-0.022460997104644775,
				-1
			],
			"type":"VEC3"
		},
		{
			"bufferView":1,
			"componentType":5126,
			"count":24,
			"type":"VEC3"
		},
		{
			"bufferView":2,
			"componentType":5126,
			"count":24,
			"type":"VEC2"
		},
		{
			"bufferView":3,
			"componentType":5123,
			"count":36,
			"type":"SCALAR"
		},
		{
			"bufferView":4,
			"componentType":5126,
			"count":24,
			"max":[
				1,
				1,
				1
			],
			"min":[
				-1,
				-1,
				-1
			],
			"type":"VEC3"
		},
		{
			"bufferView":5,
			"componentType":5126,
			"count":24,
			"type":"VEC3"
		},
		{
			"bufferView":6,
			"componentType":5126,
			"count":24,
			"type":"VEC2"
		},
		{
			"bufferView":7,
			"componentType":5126,
			"count":1984,
			"max":[
				0.9999997019767761,
				1,
				0.9999993443489075
			],
			"min":[
				-0.9999990463256836,
				-1,
				-1
			],
			"type":"VEC3"
		},
		{
			"bufferView":8,
			"componentType":5126,
			"count":1984,
			"type":"VEC3"
		},
		{
			"bufferView":9,
			"componentType":5126,
			"count":1984,
			"type":"VEC2"
		},
		{
			"bufferView":10,
			"componentType":5123,
			"count":2880,
			"type":"SCALAR"
		},
		{
			"bufferView":11,
			"componentType":5126,
			"count":128,
			"max":[
				1,
				1,
				1
			],
			"min":[
				-1,
				-1,
				-1
			],
			"type":"VEC3"
		},
		{
			"bufferView":12,
			"componentType":5126,
			"count":128,
			"type":"VEC3"
		},
		{
			"bufferView":13,
			"componentType":5126,
			"count":128,
			"type":"VEC2"
		},
		{
			"bufferView":14,
			"componentType":5123,
			"count":186,
			"type":"SCALAR"
		},
		{
			"bufferView":15,
			"componentType":5126,
			"count":407,
			"max":[
				0.827547550201416,
				1.611748218536377,
				0.21730433404445648
			],
			"min":[
				0.38860973715782166,
				0.6241794228553772,
				-0.21730442345142365
			],
			"type":"VEC3"
		},
		{
			"bufferView":16,
			"componentType":5126,
			"count":407,
			"type":"VEC3"
		},
		{
			"bufferView":17,
			"componentType":5126,
			"count":407,
			"type":"VEC2"
		},
		{
			"bufferView":18,
			"componentType":5121,
			"count":407,
			"type":"VEC4"
		},
		{
			"bufferView":19,
			"componentType":5126,
			"count":407,
			"type":"VEC4"
		},
		{
			"bufferView":20,
			"componentType":5123,
			"count":2094,
			"type":"SCALAR"
		},
		{
			"bufferView":21,
			"componentType":5126,
			"count":47,
			"max":[
				0.827547550201416,
				1.4091695547103882,
				0.11775553226470947
			],
			"min":[
				0.786855161190033,
				1.2209765911102295,
				-0.11775562912225723
			],
			"type":"VEC3"
		},
		{
			"bufferView":22,
			"componentType":5126,
			"count":47,
			"type":"VEC3"
		},
		{
			"bufferView":23,
			"componentType":5126,
			"count":47,
			"type":"VEC2"
		},
		{
			"bufferView":24,
			"componentType":5121,
			"count":47,
			"type":"VEC4"
		},
		{
			"bufferView":25,
			"componentType":5126,
			"count":47,
			"type":"VEC4"
		},
		{
			"bufferView":26,
			"componentType":5123,
			"count":132,
			"type":"SCALAR"
		},
		{
			"bufferView":27,
			"componentType":5126,
			"count":18,
			"max":[
				0.7913698554039001,
				1.3812859058380127,
				0.08625641465187073
			],
			"min":[
				0.787074625492096,
				1.3592164516448975,
				-0.08625651150941849
			],
			"type":"VEC3"
		},
		{
			"bufferView":28,
			"componentType":5126,
			"count":18,
			"type":"VEC3"
		},
		{
			"bufferView":29,
			"componentType":5126,
			"count":18,
			"type":"VEC2"
		},
		{
			"bufferView":30,
			"componentType":5121,
			"count":18,
			"type":"VEC4"
		},
		{
			"bufferView":31,
			"componentType":5126,
			"count":18,
			"type":"VEC4"
		},
		{
			"bufferView":32,
			"componentType":5123,
			"count":48,
			"type":"SCALAR"
		},
		{
			"bufferView":33,
			"componentType":5126,
			"count":6,
			"type":"MAT4"
		},
		{
			"bufferView":34,
			"componentType":5126,
			"count":100,
			"max":[
				4.166666666666667
			],
			"min":[
				0.041666666666666664
			],
			"type":"SCALAR"
		},
		{
			"bufferView":35,
			"componentType":5126,
			"count":100,
			"type":"VEC3"
		},
		{
			"bufferView":36,
			"componentType":5126,
			"count":2,
			"max":[
				4.166666666666667
			],
			"min":[
				0.041666666666666664
			],
			"type":"SCALAR"
		},
		{
			"bufferView":37,
			"componentType":5126,
			"count":2,
			"type":"VEC4"
		},
		{
			"bufferView":38,
			"componentType":5126,
			"count":2,
			"type":"VEC3"
		},
		{
			"bufferView":39,
			"componentType":5126,
			"count":100,
			"type":"VEC3"
		},
		{
			"bufferView":40,
			"componentType":5126,
			"count":2,
			"type":"VEC4"
		},
		{
			"bufferView":41,
			"componentType":5126,
			"count":2,
			"type":"VEC3"
		},
		{
			"bufferView":42,
			"componentType":5126,
			"count":100,
			"type":"VEC3"
		},
		{
			"bufferView":43,
			"componentType":5126,
			"count":2,
			"type":"VEC4"
		},
		{
			"bufferView":44,
			"componentType":5126,
			"count":2,
			"type":"VEC3"
		},
		{
			"bufferView":45,
			"componentType":5126,
			"count":2,
			"type":"VEC3"
		},
		{
			"bufferView":46,
			"componentType":5126,
			"count":100,
			"type":"VEC4"
		},
		{
			"bufferView":47,
			"componentType":5126,
			"count":2,
			"type":"VEC3"
		},
		{
			"bufferView":48,
			"componentType":5126,
			"count":2,
			"type":"VEC3"
		},
		{
			"bufferView":49,
			"componentType":5126,
			"count":2,
			"type":"VEC4"
		},
		{
			"bufferView":50,
			"componentType":5126,
			"count":2,
			"type":"VEC3"
		},
		{
			"bufferView":51,
			"componentType":5126,
			"count":2,
			"type":"VEC3"
		},
		{
			"bufferView":52,
			"componentType":5126,
			"count":2,
			"type":"VEC4"
		},
		{
			"bufferView":53,
			"componentType":5126,
			"count":2,
			"type":"VEC3"
		},
		{
			"bufferView":54,
			"componentType":5126,
			"count":2,
			"type":"VEC3"
		},
		{
			"bufferView":55,
			"componentType":5126,
			"count":100,
			"type":"VEC4"
		},
		{
			"bufferView":56,
			"componentType":5126,
			"count":2,
			"type":"VEC3"
		},
		{
			"bufferView":57,
			"componentType":5126,
			"count":2,
			"type":"VEC3"
		},
		{
			"bufferView":58,
			"componentType":5126,
			"count":2,
			"type":"VEC4"
		},
		{
			"bufferView":59,
			"componentType":5126,
			"count":2,
			"type":"VEC3"
		},
		{
			"bufferView":60,
			"componentType":5126,
			"count":2,
			"type":"VEC3"
		},
		{
			"bufferView":61,
			"componentType":5126,
			"count":2,
			"type":"VEC4"
		},
		{
			"bufferView":62,
			"componentType":5126,
			"count":2,
			"type":"VEC3"
		},
		{
			"bufferView":63,
			"componentType":5126,
			"count":1,
			"max":[
				3.3333333333333335
			],
			"min":[
				3.3333333333333335
			],
			"type":"SCALAR"
		},
		{
			"bufferView":64,
			"componentType":5126,
			"count":1,
			"type":"VEC3"
		},
		{
			"bufferView":65,
			"componentType":5126,
			"count":1,
			"type":"VEC4"
		},
		{
			"bufferView":66,
			"componentType":5126,
			"count":1,
			"type":"VEC3"
		}
	],
	"bufferViews":[
		{
			"buffer":0,
			"byteLength":288,
			"byteOffset":0,
			"target":34962
		},
		{
			"buffer":0,
			"byteLength":288,
			"byteOffset":288,
			"target":34962
		},
		{
			"buffer":0,
			"byteLength":192,
			"byteOffset":576,
			"target":34962
		},
		{
			"buffer":0,
			"byteLength":72,
			"byteOffset":768,
			"target":34963
		},
		{
			"buffer":0,
			"byteLength":288,
			"byteOffset":840,
			"target":34962
		},
		{
			"buffer":0,
			"byteLength":288,
			"byteOffset":1128,
			"target":34962
		},
		{
			"buffer":0,
			"byteLength":192,
			"byteOffset":1416,
			"target":34962
		},
		{
			"buffer":0,
			"byteLength":23808,
			"byteOffset":1608,
			"target":34962
		},
		{
			"buffer":0,
			"byteLength":23808,
			"byteOffset":25416,
			"target":34962
		},
		{
			"buffer":0,
			"byteLength":15872,
			"byteOffset":49224,
			"target":34962
		},
		{
			"buffer":0,
			"byteLength":5760,
			"byteOffset":65096,
			"target":34963
		},
		{
			"buffer":0,
			"byteLength":1536,
			"byteOffset":70856,
			"target":34962
		},
		{
			"buffer":0,
			"byteLength":1536,
			"byteOffset":72392,
			"target":34962
		},
		{
			"buffer":0,
			"byteLength":1024,
			"byteOffset":73928,
			"target":34962
		},
		{
			"buffer":0,
			"byteLength":372,
			"byteOffset":74952,
			"target":34963
		},
		{
			"buffer":0,
			"byteLength":4884,
			"byteOffset":75324,
			"target":34962
		},
		{
			"buffer":0,
			"byteLength":4884,
			"byteOffset":80208,
			"target":34962
		},
		{
			"buffer":0,
			"byteLength":3256,
			"byteOffset":85092,
			"target":34962
		},
		{
			"buffer":0,
			"byteLength":1628,
			"byteOffset":88348,
			"target":34962
		},
		{
			"buffer":0,
			"byteLength":6512,
			"byteOffset":89976,
			"target":34962
		},
		{
			"buffer":0,
			"byteLength":4188,
			"byteOffset":96488,
			"target":34963
		},
		{
			"buffer":0,
			"byteLength":564,
			"byteOffset":100676,
			"target":34962
		},
		{
			"buffer":0,
			"byteLength":564,
			"byteOffset":101240,
			"target":34962
		},
		{
			"buffer":0,
			"byteLength":376,
			"byteOffset":101804,
			"target":34962
		},
		{
			"buffer":0,
			"byteLength":188,
			"byteOffset":102180,
			"target":34962
		},
		{
			"buffer":0,
			"byteLength":752,
			"byteOffset":102368,
			"target":34962
		},
		{
			"buffer":0,
			"byteLength":264,
			"byteOffset":103120,
			"target":34963
		},
		{
			"buffer":0,
			"byteLength":216,
			"byteOffset":103384,
			"target":34962
		},
		{
			"buffer":0,
			"byteLength":216,
			"byteOffset":103600,
			"target":34962
		},
		{
			"buffer":0,
			"byteLength":144,
			"byteOffset":103816,
			"target":34962
		},
		{
			"buffer":0,
			"byteLength":72,
			"byteOffset":103960,
			"target":34962
		},
		{
			"buffer":0,
			"byteLength":288,
			"byteOffset":104032,
			"target":34962
		},
		{
			"buffer":0,
			"byteLength":96,
			"byteOffset":104320,
			"target":34963
		},
		{
			"buffer":0,
			"byteLength":384,
			"byteOffset":104416
		},
		{
			"buffer":0,
			"byteLength":400,
			"byteOffset":104800
		},
		{
			"buffer":0,
			"byteLength":1200,
			"byteOffset":105200
		},
		{
			"buffer":0,
			"byteLength":8,
			"byteOffset":106400
		},
		{
			"buffer":0,
			"byteLength":32,
			"byteOffset":106408
		},
		{
			"buffer":0,
			"byteLength":24,
			"byteOffset":106440
		},
		{
			"buffer":0,
			"byteLength":1200,
			"byteOffset":106464
		},
		{
			"buffer":0,
			"byteLength":32,
			"byteOffset":107664
		},
		{
			"buffer":0,
			"byteLength":24,
			"byteOffset":107696
		},
		{
			"buffer":0,
			"byteLength":1200,
			"byteOffset":107720
		},
		{
			"buffer":0,
			"byteLength":32,
			"byteOffset":108920
		},
		{
			"buffer":0,
			"byteLength":24,
			"byteOffset":108952
		},
		{
			"buffer":0,
			"byteLength":24,
			"byteOffset":108976
		},
		{
			"buffer":0,
			"byteLength":1600,
			"byteOffset":109000
		},
		{
			"buffer":0,
			"byteLength":24,
			"byteOffset":110600
		},
		{
			"buffer":0,
			"byteLength":24,
			"byteOffset":110624
		},
		{
			"buffer":0,
			"byteLength":32,
			"byteOffset":110648
		},
		{
			"buffer":0,
			"byteLength":24,
			"byteOffset":110680
		},
		{
			"buffer":0,
			"byteLength":24,
			"byteOffset":110704
		},
		{
			"buffer":0,
			"byteLength":32,
			"byteOffset":110728
		},
		{
			"buffer":0,
			"byteLength":24,
			"byteOffset":110760
		},
		{
			"buffer":0,
			"byteLength":24,
			"byteOffset":110784
		},
		{
			"buffer":0,
			"byteLength":1600,
			"byteOffset":110808
		},
		{
			"buffer":0,
			"byteLength":24,
			"byteOffset":112408
		},
		{
			"buffer":0,
			"byteLength":24,
			"byteOffset":112432
		},
		{
			"buffer":0,
			"byteLength":32,
			"byteOffset":112456
		},
		{
			"buffer":0,
			"byteLength":24,
			"byteOffset":112488
		},
		{
			"buffer":0,
			"byteLength":24,
			"byteOffset":112512
		},
		{
			"buffer":0,
			"byteLength":32,
			"byteOffset":112536
		},
		{
			"buffer":0,
			"byteLength":24,
			"byteOffset":112568
		},
		{
			"buffer":0,
			"byteLength":4,
			"byteOffset":112592
		},
		{
			"buffer":0,
			"byteLength":12,
			"byteOffset":112596
		},
		{
			"buffer":0,
			"byteLength":16,
			"byteOffset":112608
		},
		{
			"buffer":0,
			"byteLength":12,
			"byteOffset":112624
		}
	],
	"buffers":[
		{
			"byteLength":112636,
			"uri":"Diorama_Test.bin"
		}
	]
}
